<svg width="1442" height="228" viewBox="0 0 1442 228" fill="none" xmlns="http://www.w3.org/2000/svg">
<path d="M1 17.2625C1 17.2625 32.0717 13.8665 123.952 31.5074C238.803 53.5584 335.519 140.652 496.146 175.34C646.307 207.769 843.408 223.009 1000.2 223.953H1030.85C1159.71 223.151 1339.97 223.619 1414 223.953H1030.85C1020.82 224.015 1010.6 224.016 1000.2 223.953H1V17.2625Z" fill="white"/>
<path d="M1 31.2621C1 31.2621 31.5413 27.87 121.854 45.4906C234.744 67.5162 329.809 154.509 487.694 189.158C645.085 223.698 915.68 214.001 1074.01 213C1200.67 212.199 1368.24 162.166 1441 162.5" stroke="#C11C22"/>
<path d="M1 1.26213C1 1.26213 31.5413 -2.12998 121.854 15.4906C234.744 37.5162 329.223 170.851 487.109 205.5C644.499 240.04 932.955 227.005 1089.92 205.5C1224.95 187 1368.24 121.166 1441 121.5" stroke="black"/>
</svg>
