<svg width="1440" height="238" viewBox="0 0 1440 238" fill="none" xmlns="http://www.w3.org/2000/svg">
<g clip-path="url(#clip0)">
<rect width="1440" height="238" fill="white"/>
<path d="M0 13.2066C0 13.2066 30.5413 10.5325 120.854 24.4233C233.744 41.7868 328.223 146.899 486.109 174.213C643.499 201.442 931.955 191.167 1088.92 174.213C1223.95 159.629 1367.24 107.731 1440 107.994" stroke="#0075FF"/>
<path d="M-1.5 86.0001C-1.5 86.0001 111.688 58.1091 202 71.9999C314.891 89.3634 371.615 126.685 529.5 154C686.891 181.229 941.034 215.953 1098 199C1233.03 184.416 1361.74 85.737 1434.5 86.0001" stroke="black"/>
<path d="M0 60.1695C0 60.1695 30.5413 57.9758 120.854 69.3714C233.744 83.616 328.809 139.877 486.694 162.285C644.085 184.623 914.68 178.352 1073.01 177.704C1199.67 177.186 1367.24 144.829 1440 145.044" stroke="#C11C22"/>
</g>
<defs>
<clipPath id="clip0">
<rect width="1440" height="238" fill="white"/>
</clipPath>
</defs>
</svg>
