<svg width="1442" height="187" viewBox="0 0 1442 187" fill="none" xmlns="http://www.w3.org/2000/svg">
<path d="M1 32.187C1 32.187 32.0825 29.7672 123.995 42.3372C238.886 58.0497 335.635 120.108 496.318 144.826C650.407 168.529 854.049 186.298 1012.76 186.98H1031.36C1160.26 186.408 1367.95 186.742 1442 186.98H1031.36C1025.23 187.007 1019.03 187.007 1012.76 186.98H1V32.187Z" fill="white"/>
<path d="M1 1.20665C1 1.20665 31.5413 -1.46745 121.854 12.4233C234.744 29.7868 329.223 134.899 487.109 162.213C644.499 189.442 932.955 179.167 1089.92 162.213C1224.95 147.629 1368.24 95.7305 1441 95.9936" stroke="white"/>
<path d="M1 48.1695C1 48.1695 31.5413 45.9758 121.854 57.3714C234.744 71.616 329.809 127.877 487.694 150.285C645.085 172.623 915.68 166.352 1074.01 165.704C1200.67 165.186 1368.24 132.829 1441 133.044" stroke="#C11C22"/>
</svg>
