<?xml version="1.0"?>
<svg xmlns="http://www.w3.org/2000/svg" height="512px" viewBox="0 -4 447.94264 447" width="512px"><path d="m423.941406 254.277344v-14.609375c.117188-68.09375-34.539062-131.535157-91.894531-168.230469-2.402344-1.652344-5.511719-1.863281-8.117187-.554688-2.605469 1.308594-4.292969 3.929688-4.40625 6.839844-.109376 2.914063 1.371093 5.65625 3.867187 7.160156 52.769531 33.769532 84.652344 92.136719 84.550781 154.785157v8.734375c-19.871094-3.359375-39.726562 6.054687-49.703125 23.566406-9.976562 17.507812-7.953125 39.386719 5.066407 54.773438 13.019531 15.382812 34.261718 20.996093 53.179687 14.050781 18.917969-6.945313 31.484375-24.972657 31.457031-45.125-.089844-17.078125-9.222656-32.832031-24-41.390625zm0 0" fill="#FFFFFF"/><path d="m336.054688 385.5625c-32.082032 24.835938-71.539063 38.246094-112.113282 38.105469-60.242187-.019531-116.664062-29.519531-151.054687-78.984375l-3.007813-6.335938c13.585938-6.976562 23.042969-20.007812 25.464844-35.089844.398438-2.507812.597656-5.046874.597656-7.589843-.023437-26.5-21.5-47.972657-48-48-4.605468-.007813-9.1875.660156-13.597656 1.984375-22.847656 6.78125-37.261719 29.300781-33.847656 52.886718 3.410156 23.589844 23.613281 41.101563 47.445312 41.128907 2.175782-.027344 4.347656-.203125 6.496094-.527344l4.28125 9c.183594.386719.394531.757813.640625 1.109375 37.332031 54.09375 98.855469 86.398438 164.582031 86.417969 44.109375.148437 87.003906-14.433594 121.882813-41.433594 2.277343-1.738281 3.453125-4.566406 3.078125-7.40625-.375-2.84375-2.246094-5.269531-4.898438-6.355469-2.652344-1.085937-5.6875-.671875-7.949218 1.089844zm0 0" fill="#FFFFFF"/><path d="m35.984375 199.515625c.648437.171875 1.316406.257813 1.988281.257813 3.652344-.003907 6.835938-2.476563 7.746094-6.007813 16.101562-62.453125 63.714844-111.921875 125.503906-130.402344l6.726563-2.351562c5.089843 17.390625 19.496093 30.460937 37.296875 33.839843 2.867187.539063 5.777344.8125 8.695312.816407 23.765625-.078125 43.914063-17.484375 47.441406-40.984375.367188-2.320313.554688-4.667969.558594-7.015625-.429687-25.625-20.910156-46.390625-46.527344-47.175781-25.613281-.78125-47.328124 18.699218-49.320312 44.246093l-9.816406 3.425781c-67.003906 20.136719-118.605469 73.84375-136.046875 141.601563-.53125 2.054687-.226563 4.238281.855469 6.066406 1.078124 1.828125 2.839843 3.15625 4.898437 3.683594zm0 0" fill="#FFFFFF"/></svg>
