<svg width="940" height="339" viewBox="0 0 940 339" fill="none" xmlns="http://www.w3.org/2000/svg">
<path d="M816.253 61.792V0.189007H644.834L616.643 205.992L588.747 0.190006H526.93L533.855 55.105C526.715 41.037 501.406 0.190006 445.709 0.190006C445.342 0.166006 383.808 0.190006 383.808 0.190006L383.571 300.164L338.514 0.190006L257.555 0.143005L210.943 310.957L210.967 0.188007H133.484L105.551 174.773L78.343 0.190006H0.835022V338.096H61.871V175.226L89.635 338.092H122.084L149.458 175.226V338.092H267.125L274.265 286.097H321.639L328.755 338.092L444.276 338.163H444.37V338.092H444.442H444.514V228.407L458.676 226.344L487.995 338.163H488.067H547.677H547.747L547.723 338.092H547.829H547.901L509.426 207.035C528.924 192.613 550.939 155.988 545.08 120.951V120.928C545.15 121.402 581.396 338.308 581.396 338.308L652.461 338.092L701.02 31.808V338.093H816.256V277.32H761.556V199.824H816.256V138.126H761.556V61.792H816.253ZM281.455 232.513L298.213 88.052L315.613 232.513H281.455ZM458.874 165.809C454.177 168.087 449.279 169.226 444.511 169.226V60.535C444.594 60.535 444.69 60.513 444.808 60.513C449.588 60.489 485.227 61.959 485.227 114.287C485.227 141.66 473.106 158.907 458.874 165.809ZM939.234 277.273V338.045H826.82V0.143005H887.346V277.273H939.234Z" fill="white"/>
</svg>
